<svg width="16" height="17" viewBox="0 0 16 17" fill="none" xmlns="http://www.w3.org/2000/svg">
<path d="M15 9.5C15.5523 9.5 16 9.05228 16 8.5C16 7.94772 15.5523 7.5 15 7.5V8.5V9.5ZM0.792893 7.79289C0.402369 8.18342 0.402369 8.81658 0.792893 9.20711L7.15685 15.5711C7.54738 15.9616 8.18054 15.9616 8.57107 15.5711C8.96159 15.1805 8.96159 14.5474 8.57107 14.1569L2.91421 8.5L8.57107 2.84315C8.96159 2.45262 8.96159 1.81946 8.57107 1.42893C8.18054 1.03841 7.54738 1.03841 7.15685 1.42893L0.792893 7.79289ZM15 8.5V7.5L1.5 7.5V8.5V9.5L15 9.5V8.5Z" fill="white"/>
</svg>
